<?xml version="1.0" encoding="UTF-8"?>
<svg version="1.1" xmlns="http://www.w3.org/2000/svg" width="500" height="500">
<path d="M0 0 C1.34945187 -0.00374311 2.69890157 -0.00834725 4.04834789 -0.01373065 C7.73267538 -0.02589485 11.41691162 -0.025708 15.10125458 -0.02334189 C19.08441365 -0.02293204 23.06754412 -0.03398898 27.0506897 -0.04345703 C34.84624459 -0.06003268 42.64176922 -0.06556505 50.43734027 -0.06668179 C56.77897031 -0.06763405 63.12059043 -0.07175325 69.46221733 -0.07808304 C87.46773394 -0.09568737 105.47322675 -0.10492337 123.47875202 -0.10342209 C124.44836624 -0.10334218 125.41798046 -0.10326227 126.41697693 -0.10317993 C127.38778428 -0.10309817 128.35859163 -0.10301641 129.35881739 -0.10293217 C145.07979713 -0.10211987 160.80068092 -0.1212455 176.52163292 -0.14945666 C192.68912582 -0.17823862 208.85657203 -0.19199399 225.02409118 -0.19026911 C234.0906622 -0.18960696 243.15713266 -0.19502198 252.2236805 -0.21662521 C259.94549878 -0.23490723 267.66717097 -0.23912719 275.38900162 -0.22560637 C279.32232201 -0.21911145 283.2553627 -0.2188321 287.18865585 -0.23631287 C319.880273 -0.37240808 348.57321999 5.48454629 372.56126404 29.20492554 C391.21078003 48.47813027 400.79376298 73.22597502 400.72712708 99.807724 C400.73087018 101.15717587 400.73547432 102.50662557 400.74085772 103.85607189 C400.75302193 107.54039938 400.75283507 111.22463562 400.75046897 114.90897858 C400.75005912 118.89213765 400.76111606 122.87526812 400.77058411 126.8584137 C400.78715976 134.65396859 400.79269213 142.44949322 400.79380886 150.24506427 C400.79476113 156.58669431 400.79888032 162.92831443 400.80521011 169.26994133 C400.82281445 187.27545793 400.83205044 205.28095075 400.83054917 223.28647602 C400.83046925 224.25609024 400.83038934 225.22570446 400.83030701 226.22470093 C400.83022525 227.19550828 400.83014348 228.16631563 400.83005925 229.16654139 C400.82924695 244.88752113 400.84837257 260.60840492 400.87658374 276.32935692 C400.9053657 292.49684982 400.91912106 308.66429603 400.91739619 324.83181518 C400.91673404 333.89838619 400.92214906 342.96485666 400.94375229 352.0314045 C400.9620343 359.75322278 400.96625427 367.47489497 400.95273344 375.19672561 C400.94623852 379.13004601 400.94595917 383.0630867 400.96343994 386.99637985 C401.09953516 419.68799699 395.24258078 448.38094399 371.52220154 472.36898804 C352.24899681 491.01850403 327.50115206 500.60148698 300.91940308 500.53485107 C299.56995121 500.53859418 298.22050151 500.54319832 296.87105519 500.54858172 C293.18672769 500.56074592 289.50249145 500.56055907 285.81814849 500.55819297 C281.83498942 500.55778312 277.85185895 500.56884005 273.86871338 500.57830811 C266.07315849 500.59488376 258.27763385 500.60041613 250.48206281 500.60153286 C244.14043276 500.60248513 237.79881265 500.60660432 231.45718575 500.61293411 C213.45166914 500.63053845 195.44617632 500.63977444 177.44065105 500.63827316 C176.47103683 500.63819325 175.50142261 500.63811334 174.50242615 500.63803101 C173.53161879 500.63794924 172.56081144 500.63786748 171.56058569 500.63778324 C155.83960595 500.63697095 140.11872216 500.65609657 124.39777016 500.68430774 C108.23027725 500.7130897 92.06283105 500.72684506 75.89531189 500.72512019 C66.82874088 500.72445804 57.76227041 500.72987306 48.69572258 500.75147629 C40.97390429 500.7697583 33.25223211 500.77397827 25.53040146 500.76045744 C21.59708106 500.75396252 17.66404038 500.75368317 13.73074722 500.77116394 C-18.96086992 500.90725916 -47.65381692 495.05030478 -71.64186096 471.32992554 C-90.29137696 452.05672081 -99.8743599 427.30887606 -99.807724 400.72712708 C-99.81146711 399.37767521 -99.81607125 398.02822551 -99.82145464 396.67877918 C-99.83361885 392.99445169 -99.83343199 389.31021545 -99.83106589 385.62587249 C-99.83065604 381.64271342 -99.84171298 377.65958295 -99.85118103 373.67643738 C-99.86775668 365.88088249 -99.87328905 358.08535785 -99.87440579 350.28978681 C-99.87535805 343.94815676 -99.87947724 337.60653665 -99.88580704 331.26490974 C-99.90341137 313.25939314 -99.91264737 295.25390032 -99.91114609 277.24837505 C-99.91106618 276.27876083 -99.91098626 275.30914661 -99.91090393 274.31015015 C-99.91082217 273.33934279 -99.91074041 272.36853544 -99.91065617 271.36830968 C-99.90984387 255.64732995 -99.92896949 239.92644616 -99.95718066 224.20549416 C-99.98596262 208.03800125 -99.99971799 191.87055505 -99.99799311 175.70303589 C-99.99733096 166.63646488 -100.00274598 157.56999441 -100.02434921 148.50344658 C-100.04263123 140.78162829 -100.04685119 133.05995611 -100.03333037 125.33812546 C-100.02683545 121.40480506 -100.0265561 117.47176438 -100.04403687 113.53847122 C-100.18013208 80.84685408 -94.32317771 52.15390708 -70.60279846 28.16586304 C-51.32959373 9.51634704 -26.58174898 -0.0666359 0 0 Z " fill="#070707" transform="translate(99.54029846191406,-0.267425537109375)"/>
<path d="M0 0 C0.33 0.66 0.66 1.32 1 2 C0.24730817 4.15488386 -0.60690949 6.27441466 -1.5 8.375 C-4.04573189 14.49634173 -6.34114028 20.66953246 -8.5 26.9375 C-11.29659543 35.03052664 -14.2250109 43.06048294 -17.26611328 51.06445312 C-18.52045931 54.37265516 -19.75935414 57.68664146 -21 61 C-22.52144499 65.05934473 -24.04411719 69.11821987 -25.5703125 73.17578125 C-28.42450791 80.76797666 -31.25145828 88.36875477 -34 96 C-34.66 96 -35.32 96 -36 96 C-36.12375 97.216875 -36.2475 98.43375 -36.375 99.6875 C-36.7234089 103.11352087 -37.33601281 105.95992956 -39 109 C-41.71484375 110.765625 -41.71484375 110.765625 -44.9375 112.25 C-45.99839844 112.75015625 -47.05929687 113.2503125 -48.15234375 113.765625 C-51 115 -51 115 -54 116 C-54 116.66 -54 117.32 -54 118 C-54.63454102 118.3395874 -55.26908203 118.6791748 -55.92285156 119.02905273 C-63.03556152 122.86845932 -70.0302836 126.89002993 -76.98095703 131.01391602 C-78.75986693 132.06834853 -80.54194154 133.11728722 -82.32421875 134.16601562 C-89.19113116 138.19891213 -89.19113116 138.19891213 -95.765625 142.68359375 C-98.9703668 144.97877719 -102.2177342 146.8430665 -105.67529297 148.71875 C-109.54756285 150.85293109 -113.29877597 153.18136415 -117.0625 155.5 C-117.81337891 155.96019531 -118.56425781 156.42039063 -119.33789062 156.89453125 C-123.82246636 159.6454055 -123.82246636 159.6454055 -128.26904297 162.45703125 C-128.98334473 162.91464844 -129.69764648 163.37226563 -130.43359375 163.84375 C-131.07224365 164.25818359 -131.71089355 164.67261719 -132.36889648 165.09960938 C-134 166 -134 166 -136 166 C-135.40709006 169.57130343 -134.45024166 172.48565688 -132.85546875 175.73046875 C-132.42556641 176.61669922 -131.99566406 177.50292969 -131.55273438 178.41601562 C-131.10220703 179.33060547 -130.65167969 180.24519531 -130.1875 181.1875 C-127.19134378 187.29860278 -124.35321819 193.38684458 -121.93676758 199.75317383 C-120.64211355 202.85838651 -118.96596076 205.69460397 -117.2835083 208.60266113 C-116.05248291 210.90197234 -115.09587942 213.16426306 -114.17211914 215.60083008 C-111.97913637 221.17776962 -109.40576221 226.51974879 -106.74609375 231.88671875 C-106.24513687 232.90562698 -105.74417999 233.92453522 -105.2280426 234.97431946 C-103.63465394 238.21376326 -102.03636712 241.45075718 -100.4375 244.6875 C-98.35103496 248.91967339 -96.26672508 253.15290356 -94.18359375 257.38671875 C-93.669711 258.43063278 -93.15582825 259.47454681 -92.62637329 260.5500946 C-88.16194656 269.63528423 -83.78412225 278.76056115 -79.43286133 287.90039062 C-76.72079289 293.59587026 -73.99057118 299.28320735 -71.20033264 304.94087219 C-70.40665854 306.59975303 -69.69404112 308.29702873 -69 310 C-69.33 310.66 -69.66 311.32 -70 312 C-71.83893824 310.71632558 -73.67102625 309.42283239 -75.5 308.125 C-76.5209375 307.40570313 -77.541875 306.68640625 -78.59375 305.9453125 C-79.3878125 305.30335938 -80.181875 304.66140625 -81 304 C-81 303.34 -81 302.68 -81 302 C-81.87108398 301.58947388 -81.87108398 301.58947388 -82.75976562 301.1706543 C-84.96159026 300.02007135 -86.85036545 298.74845399 -88.84375 297.26953125 C-89.5850415 296.72167969 -90.32633301 296.17382812 -91.09008789 295.609375 C-92.28299438 294.71992187 -92.28299438 294.71992187 -93.5 293.8125 C-94.33587646 293.19246094 -95.17175293 292.57242187 -96.03295898 291.93359375 C-98.69133484 289.95932412 -101.34589953 287.98001237 -104 286 C-104.84320801 285.37270996 -105.68641602 284.74541992 -106.55517578 284.09912109 C-115.59486151 277.37252625 -124.57230691 270.58020097 -133.4375 263.625 C-139.40983551 258.94281275 -145.46488403 254.51865814 -151.74609375 250.2578125 C-156.1530886 247.19989771 -160.41803801 243.96783364 -164.69433594 240.73095703 C-169.86631637 236.82540755 -175.107012 233.02476053 -180.375 229.25 C-195.87843303 218.12156697 -195.87843303 218.12156697 -201 213 C-200.68201481 209.04505916 -199.26006054 206.51244148 -197 203.3125 C-194.83977108 200.25134986 -194.83977108 200.25134986 -193 197 C-200.81463692 197.15355148 -205.97977648 199.10033572 -212.5625 203.1875 C-214.41048348 204.28939699 -216.259486 205.38958631 -218.109375 206.48828125 C-219.07037109 207.06529785 -220.03136719 207.64231445 -221.02148438 208.23681641 C-226.06054507 211.21977512 -231.19080402 214.03715255 -236.3125 216.875 C-244.78357289 221.596732 -253.19338034 226.41246614 -261.5625 231.3125 C-262.55813965 231.89257812 -263.5537793 232.47265625 -264.57958984 233.0703125 C-268.9880758 235.6402753 -273.38335895 238.22550422 -277.7421875 240.87890625 C-279.14048946 241.71116527 -280.53891679 242.5432137 -281.9375 243.375 C-282.53312744 243.75052002 -283.12875488 244.12604004 -283.74243164 244.51293945 C-288.54625897 247.33123022 -292.61555365 247.39884788 -298 247 C-296.58525293 239.56091789 -294.16886238 232.83810319 -291.375 225.8125 C-290.47218756 223.50850559 -289.57117632 221.20380465 -288.671875 218.8984375 C-287.99801758 217.17125488 -287.99801758 217.17125488 -287.31054688 215.40917969 C-285.00330497 209.40725607 -282.83528242 203.35526937 -280.68896484 197.29418945 C-279.23857325 193.23773614 -277.70806443 189.28973896 -275.8984375 185.37890625 C-275.25738131 183.92287254 -274.62417792 182.4633486 -274 181 C-273.71133057 180.34306152 -273.42266113 179.68612305 -273.12524414 179.00927734 C-272.02067156 175.89401616 -271.70076548 173.8923635 -272.76611328 170.71533203 C-274.07673515 168.07552424 -275.53055043 165.58032143 -277.0625 163.0625 C-278.19163586 161.10710237 -279.31783009 159.15000379 -280.44140625 157.19140625 C-281.03066895 156.1770752 -281.61993164 155.16274414 -282.22705078 154.11767578 C-285.14145161 148.99279302 -287.81274741 143.74648253 -290.5 138.5 C-295.25233278 129.28917495 -300.13102276 120.15694635 -305.13085938 111.078125 C-306.42740861 108.72239754 -307.71585425 106.3625058 -309 104 C-309.62648438 102.84886719 -310.25296875 101.69773437 -310.8984375 100.51171875 C-311.26195312 99.68285156 -311.62546875 98.85398437 -312 98 C-311.505 97.01 -311.505 97.01 -311 96 C-299.62046927 103.74086972 -288.3036026 111.56023582 -277.07958984 119.52490234 C-267.17907253 126.54755151 -257.25274955 133.53373347 -247.3125 140.5 C-246.05602661 141.38147705 -246.05602661 141.38147705 -244.77416992 142.28076172 C-243.21190464 143.37458472 -241.64626153 144.46360538 -240.07666016 145.546875 C-238.78759153 146.44888964 -237.51297074 147.37242608 -236.26318359 148.328125 C-233.96554005 150.03799927 -232.47296489 150.99239606 -229.5703125 151.0390625 C-226.01387782 149.60135486 -223.00403332 147.5563221 -219.875 145.375 C-218.24595206 144.26522182 -216.61562781 143.15731596 -214.984375 142.05078125 C-214.04916016 141.41479004 -213.11394531 140.77879883 -212.15039062 140.12353516 C-206.57130563 136.36292749 -200.93869636 132.68376185 -195.3114624 128.99575806 C-191.54720296 126.52823098 -187.78538992 124.05697983 -184.0234375 121.5859375 C-183.23208405 121.06620865 -182.44073059 120.5464798 -181.62539673 120.01100159 C-172.29159986 113.87980123 -162.9653802 107.73710227 -153.64056396 101.59225464 C-151.73983104 100.33975516 -149.83899576 99.08741098 -147.93804932 97.8352356 C-135.21629976 89.45506961 -135.21629976 89.45506961 -122.53125 81.01953125 C-113.91841698 75.26505114 -105.26216883 69.57660084 -96.60958862 63.88214111 C-82.334197 54.48627863 -68.07255913 45.07198024 -53.86669922 35.57128906 C-42.90422197 28.24921407 -31.88221964 21.01797584 -20.85913086 13.78759766 C-19.43471467 12.85321815 -18.01031632 11.91881147 -16.5859375 10.984375 C-15.91230667 10.54245819 -15.23867584 10.10054138 -14.54463196 9.64523315 C-9.68136258 6.45263244 -4.83113678 3.24107809 0 0 Z " fill="#C5C5C5" transform="translate(406,93)"/>
<path d="M0 0 C1.52349489 4.57048468 -0.72880267 7.60301561 -2.578125 11.89453125 C-6.47715563 22.23250169 -7.44238937 32.86682485 -7.38768005 43.81803894 C-7.39306559 45.13558255 -7.39845113 46.45312616 -7.40399987 47.81059533 C-7.41831377 51.425064 -7.4142544 55.03930194 -7.40683305 58.65378249 C-7.40206829 62.56874961 -7.41464038 66.48366915 -7.42485046 70.39862061 C-7.44198082 78.05260927 -7.44289031 85.70651563 -7.43763756 93.36051848 C-7.43358301 99.58809999 -7.43505462 105.81565732 -7.44038582 112.04323769 C-7.44113424 112.93229677 -7.44188266 113.82135586 -7.44265376 114.73735613 C-7.44418538 116.54397676 -7.44572372 118.35059739 -7.44726873 120.15721802 C-7.46097351 137.07183557 -7.45557085 153.98640677 -7.44408352 170.90102325 C-7.4341584 186.33910859 -7.44708294 201.77707395 -7.47101771 217.21514078 C-7.49546504 233.10479256 -7.50500246 248.99438859 -7.49836498 264.88405877 C-7.49488459 273.78966117 -7.49702613 282.69517143 -7.51461601 291.60075951 C-7.52940889 299.18372667 -7.5298819 306.76653684 -7.5125451 314.34950116 C-7.50408962 318.21018354 -7.50174986 322.07058634 -7.51719666 325.93125343 C-7.64242507 359.68421532 -2.18984105 388.16970513 22.30078125 413.3671875 C41.91813406 431.92501061 66.86980417 440.33581024 93.59098816 440.26742554 C94.90823405 440.27195665 96.22547994 440.27648776 97.58264238 440.28115618 C101.20544383 440.29328808 104.82815226 440.29313744 108.45096934 440.29076743 C112.3713798 440.29035676 116.29176143 440.30142211 120.2121582 440.31088257 C127.8804374 440.3274394 135.54868584 440.33298969 143.21698143 440.33410732 C149.45511213 440.3350603 155.69323274 440.339183 161.93136024 440.34550858 C179.64837299 440.36310622 197.36536158 440.37234972 215.08238312 440.37084763 C216.51270577 440.37072776 216.51270577 440.37072776 217.97192383 440.37060547 C218.9266471 440.37052371 219.88137038 440.37044195 220.86502466 440.37035771 C236.33045011 440.36954516 251.79577809 440.38867894 267.26117536 440.4168822 C283.17108886 440.44566535 299.08095491 440.45941952 314.99089509 440.45769465 C323.91100168 440.45703264 332.83100607 440.46244183 341.7510891 440.48405075 C349.34659723 440.50233417 356.94195682 440.50655144 364.53747752 440.4930319 C368.406005 440.48653825 372.27424811 440.48625305 376.14274788 440.5037384 C391.22489876 440.56773708 405.46740844 440.50916301 420 436 C421.84975231 435.56415425 423.70340507 435.14409539 425.5625 434.75 C426.696875 434.5025 427.83125 434.255 429 434 C429 434.66 429 435.32 429 436 C426.71086654 436.79967062 424.41907263 437.58972129 422.125 438.375 C421.49335938 438.59671875 420.86171875 438.8184375 420.2109375 439.046875 C410.28453687 442.42185121 400.92047027 443.2936489 390.45970154 443.26742554 C389.11024967 443.27116865 387.76079997 443.27577278 386.41135365 443.28115618 C382.72702616 443.29332039 379.04278991 443.29313353 375.35844696 443.29076743 C371.37528788 443.29035758 367.39215742 443.30141452 363.40901184 443.31088257 C355.61345695 443.32745822 347.81793232 443.33299059 340.02236127 443.33410732 C333.68073123 443.33505959 327.33911111 443.33917878 320.99748421 443.34550858 C302.9919676 443.36311291 284.98647479 443.37234891 266.98094951 443.37084763 C266.0113353 443.37076772 265.04172108 443.3706878 264.04272461 443.37060547 C263.07191726 443.37052371 262.1011099 443.37044195 261.10088415 443.37035771 C245.37990441 443.36954541 229.65902062 443.38867103 213.93806862 443.4168822 C197.77057571 443.44566416 181.60312951 443.45941953 165.43561035 443.45769465 C156.36903934 443.4570325 147.30256888 443.46244752 138.23602104 443.48405075 C130.51420275 443.50233277 122.79253057 443.50655273 115.07069992 443.4930319 C111.13737952 443.48653699 107.20433884 443.48625763 103.27104568 443.5037384 C70.57942854 443.63983362 41.88648154 437.78287924 17.8984375 414.0625 C-0.7510785 394.78929527 -10.33406144 370.04145052 -10.26742554 343.45970154 C-10.27116865 342.11024967 -10.27577278 340.76079997 -10.28115618 339.41135365 C-10.29332039 335.72702616 -10.29313353 332.04278991 -10.29076743 328.35844696 C-10.29035758 324.37528788 -10.30141452 320.39215742 -10.31088257 316.40901184 C-10.32745822 308.61345695 -10.33299059 300.81793232 -10.33410732 293.02236127 C-10.33505959 286.68073123 -10.33917878 280.33911111 -10.34550858 273.99748421 C-10.36311291 255.9919676 -10.37234891 237.98647479 -10.37084763 219.98094951 C-10.37076772 219.0113353 -10.3706878 218.04172108 -10.37060547 217.04272461 C-10.37052371 216.07191726 -10.37044195 215.1011099 -10.37035771 214.10088415 C-10.36954541 198.37990441 -10.38867103 182.65902062 -10.4168822 166.93806862 C-10.44566416 150.77057571 -10.45941953 134.60312951 -10.45769465 118.43561035 C-10.4570325 109.36903934 -10.46244752 100.30256888 -10.48405075 91.23602104 C-10.50233277 83.51420275 -10.50655273 75.79253057 -10.4930319 68.07069992 C-10.48653699 64.13737952 -10.48625763 60.20433884 -10.5037384 56.27104568 C-10.62966409 26.04714017 -10.62966409 26.04714017 -6 12 C-5.62550909 10.83840079 -5.25101818 9.67680159 -4.86517906 8.4800024 C-4.01196552 5.91220582 -3.18609335 3.43198972 -2 1 C-1.34 0.67 -0.68 0.34 0 0 Z " fill="#424242" transform="translate(10,57)"/>
<path d="M0 0 C0.66 0.33 1.32 0.66 2 1 C-4.01466329 29.90576415 -16.75685202 54.40986698 -42 71 C-44.4957086 72.58637324 -47.01490453 74.12344366 -49.5625 75.625 C-50.15853027 75.98053955 -50.75456055 76.3360791 -51.36865234 76.70239258 C-53.06640625 77.6640625 -53.06640625 77.6640625 -56 79 C-56.99 78.67 -57.98 78.34 -59 78 C-56.6376317 75.35104932 -54.22100761 73.96121087 -51.0625 72.375 C-29.78928958 60.98064191 -12.87129774 41.68604037 -5.52734375 18.546875 C-4.65309664 15.6471445 -3.83346117 12.7360672 -3.04296875 9.8125 C-2.13512314 6.49393327 -1.12260332 3.25097795 0 0 Z " fill="#191919" transform="translate(498,413)"/>
<path d="M0 0 C0.66 0.33 1.32 0.66 2 1 C-1.04316319 4.24604073 -4.23747259 7.01438675 -7.75 9.75 C-18.93509839 18.62495177 -26.73395825 28.63052596 -33.640625 41.06640625 C-35 43 -35 43 -38 44 C-36.60841974 39.08057573 -34.40371569 35.07929796 -31.5625 30.875 C-31.12147949 30.22192871 -30.68045898 29.56885742 -30.22607422 28.89599609 C-21.95849194 16.93581279 -12.0570604 8.03804027 0 0 Z " fill="#161616" transform="translate(47,14)"/>
<path d="M0 0 C-3.45922629 2.95051654 -6.7838704 5.25855517 -11 7 C-11.99 6.67 -12.98 6.34 -14 6 C-11.86197902 3.67490219 -9.81401863 2.17832764 -7 0.75 C-6.319375 0.39421875 -5.63875 0.0384375 -4.9375 -0.328125 C-3 -1 -3 -1 0 0 Z " fill="#212121" transform="translate(453,485)"/>
</svg>
